<?xml version="1.0" encoding="utf-8"?>
<!-- Generator: Adobe Illustrator 23.0.2, SVG Export Plug-In . SVG Version: 6.00 Build 0)  -->
<svg version="1.1" id="Layer_1" xmlns="http://www.w3.org/2000/svg" xmlns:xlink="http://www.w3.org/1999/xlink" x="0px" y="0px"
	 viewBox="0 0 125.7 125.9" style="enable-background:new 0 0 125.7 125.9;" xml:space="preserve">
<circle cx="5.9" cy="5.9" r="5.9"/>
<circle cx="34.4" cy="5.9" r="5.9"/>
<circle cx="62.9" cy="5.9" r="5.9"/>
<circle cx="91.4" cy="5.9" r="5.9"/>
<circle cx="119.9" cy="5.9" r="5.9"/>
<circle cx="5.9" cy="33.9" r="5.9"/>
<circle cx="34.4" cy="33.9" r="5.9"/>
<circle cx="62.9" cy="33.9" r="5.9"/>
<circle cx="91.4" cy="33.9" r="5.9"/>
<circle cx="119.9" cy="33.9" r="5.9"/>
<circle cx="5.9" cy="62" r="5.9"/>
<circle cx="34.4" cy="62" r="5.9"/>
<circle cx="62.9" cy="62" r="5.9"/>
<circle cx="91.4" cy="62" r="5.9"/>
<circle cx="119.9" cy="62" r="5.9"/>
<circle cx="5.9" cy="90.1" r="5.9"/>
<circle cx="34.4" cy="90.1" r="5.9"/>
<circle cx="62.9" cy="90.1" r="5.9"/>
<circle cx="91.4" cy="90.1" r="5.9"/>
<circle cx="119.9" cy="90.1" r="5.9"/>
<circle cx="5.9" cy="118.1" r="5.9"/>
<circle cx="34.4" cy="118.1" r="5.9"/>
<circle cx="62.9" cy="118.1" r="5.9"/>
<circle cx="91.4" cy="118.1" r="5.9"/>
<circle cx="119.9" cy="118.1" r="5.9"/>
</svg>
