<?xml version="1.0" encoding="utf-8"?>
<!-- Generator: Adobe Illustrator 23.0.2, SVG Export Plug-In . SVG Version: 6.00 Build 0)  -->
<svg version="1.1" id="Capa_1" xmlns="http://www.w3.org/2000/svg" xmlns:xlink="http://www.w3.org/1999/xlink" x="0px" y="0px"
	 viewBox="0 0 512 512" style="enable-background:new 0 0 512 512;" xml:space="preserve">
<g>
	<g>
		<path d="M503.5,81.1h-8.5V64c0-9.4-7.6-17.1-17.1-17.1h-17.1c0-9.4-7.6-17.1-17.1-17.1h-17.1c-9.4,0-17.1,7.6-17.1,17.1v34.1
			h-85.3V38.4c0-14.1-11.5-25.6-25.6-25.6h-85.3c-14.1,0-25.6,11.5-25.6,25.6v42.7h-85.3V46.9c0-9.4-7.6-17.1-17.1-17.1H68.3
			c-9.4,0-17.1,7.6-17.1,17.1H34.1c-9.4,0-17.1,7.6-17.1,17.1v17.1H8.5c-4.7,0-8.5,3.8-8.5,8.5s3.8,8.5,8.5,8.5h8.5v17.1
			c0,9.4,7.6,17.1,17.1,17.1h17.1c0,9.4,7.6,17.1,17.1,17.1h17.1c9.4,0,17.1-7.6,17.1-17.1V98.1h17.1v102.4
			c-9.4,0-17.1,7.6-17.1,17.1v232c-11.8,4.1-18.8,16.1-16.7,28.4c2.1,12.3,12.8,21.2,25.2,21.2h51.2c12.5,0,23.1-8.9,25.2-21.2
			c2.1-12.3-4.9-24.3-16.7-28.4v-52.8h59.7v93.9c0,2.3,0.9,4.4,2.5,6c1.6,1.6,3.8,2.5,6,2.5h34.1c2.3,0,4.4-0.9,6-2.5
			c1.6-1.6,2.5-3.8,2.5-6v-93.9h59.7v52.8c-11.8,4.1-18.8,16.1-16.7,28.4c2.1,12.3,12.8,21.2,25.2,21.2h51.2
			c12.5,0,23.1-8.9,25.2-21.2c2.1-12.3-4.9-24.3-16.7-28.4v-232c0-9.4-7.6-17.1-17.1-17.1V98.1h17.1v34.1c0,9.4,7.6,17.1,17.1,17.1
			h17.1c9.4,0,17.1-7.6,17.1-17.1h17.1c9.4,0,17.1-7.6,17.1-17.1V98.1h8.5c4.7,0,8.5-3.8,8.5-8.5S508.2,81.1,503.5,81.1z
			 M51.2,115.2H34.1V64h17.1V115.2z M68.3,132.3V46.9h17.1l0,42.6l0,0l0,0l0,42.6H68.3z M358.4,98.1h17.1v102.4h-17.1V98.1z
			 M358.4,217.6h34.1V448h-34.1v-52.8c10.2-3.6,17.1-13.2,17.1-24s-6.8-20.5-17.1-24V217.6z M324.3,302.9V98.1h17.1v247.5h-59.7
			v-17.1h17.1C312.8,328.5,324.3,317.1,324.3,302.9z M204.8,38.4c0-4.7,3.8-8.5,8.5-8.5h85.3c4.7,0,8.5,3.8,8.5,8.5v42.7H204.8V38.4
			z M204.8,98.1h102.4v204.8c0,4.7-3.8,8.5-8.5,8.5h-85.3c-4.7,0-8.5-3.8-8.5-8.5L204.8,98.1L204.8,98.1z M264.5,328.5v17.1h-17.1
			v-17.1L264.5,328.5L264.5,328.5z M170.7,98.1h17.1v204.8c0,14.1,11.5,25.6,25.6,25.6h17.1v17.1h-59.7L170.7,98.1L170.7,98.1z
			 M136.5,98.1h17.1v102.4h-17.1V98.1z M119.5,217.6h34.1v129.6c-10.2,3.6-17.1,13.2-17.1,24s6.8,20.5,17.1,24V448h-34.1
			C119.5,448,119.5,217.6,119.5,217.6z M162.1,482.1h-51.2c-4.7,0-8.5-3.8-8.5-8.5s3.8-8.5,8.5-8.5h51.2c4.7,0,8.5,3.8,8.5,8.5
			S166.8,482.1,162.1,482.1z M264.5,482.1h-17.1v-85.3h17.1V482.1z M273.1,379.7H162.1c-4.7,0-8.5-3.8-8.5-8.5s3.8-8.5,8.5-8.5
			h187.7c4.7,0,8.5,3.8,8.5,8.5s-3.8,8.5-8.5,8.5H273.1z M401.1,465.1c4.7,0,8.5,3.8,8.5,8.5s-3.8,8.5-8.5,8.5h-51.2
			c-4.7,0-8.5-3.8-8.5-8.5s3.8-8.5,8.5-8.5H401.1z M443.7,132.3h-17.1V46.9h17.1V132.3z M477.9,115.2h-17.1V64h17.1L477.9,115.2
			L477.9,115.2z"/>
	</g>
</g>
</svg>
