<svg height="438.85714pt" viewBox="0 0 438.85714 438.85714" width="438.85714pt" xmlns="http://www.w3.org/2000/svg"><path d="m411.429688 0h-384c-15.125 0-27.429688 12.304688-27.429688 27.429688v384c0 15.125 12.304688 27.425781 27.429688 27.425781h384c15.125 0 27.425781-12.300781 27.425781-27.425781v-384c0-15.125-12.300781-27.429688-27.425781-27.429688zm9.140624 411.429688c0 5.042968-4.101562 9.140624-9.140624 9.140624h-384c-5.042969 0-9.144532-4.097656-9.144532-9.140624v-320h402.285156zm0-338.285157h-402.285156v-45.714843c0-5.046876 4.101563-9.144532 9.144532-9.144532h384c5.039062 0 9.140624 4.097656 9.140624 9.144532zm0 0"/><path d="m45.714844 36.570312h27.429687v18.285157h-27.429687zm0 0"/><path d="m100.570312 36.570312h27.429688v18.285157h-27.429688zm0 0"/><path d="m155.429688 36.570312h27.425781v18.285157h-27.425781zm0 0"/><path d="m138.996094 234.332031c-.789063 16.5 9.503906 31.0625 25.035156 35.417969 3.71875 1.042969 6.945312 3.480469 9.082031 6.855469 2.574219 4.089843 5.953125 7.371093 9.742188 9.953125v106.585937c0 3.9375 2.519531 7.425781 6.25 8.667969 3.738281 1.269531 7.851562-.035156 10.207031-3.1875l20.117188-26.8125 20.113281 26.8125c1.761719 2.347656 4.492187 3.660156 7.3125 3.660156.964843 0 1.945312-.152344 2.894531-.472656 3.730469-1.242188 6.25-4.730469 6.25-8.667969v-106.507812c3.800781-2.578125 7.15625-5.921875 9.742188-10.019531 2.132812-3.386719 5.359374-5.824219 9.082031-6.867188 15.53125-4.355469 25.828125-18.917969 25.03125-35.417969-.199219-4.144531 1.070312-8.199219 3.5625-11.402343 9.984375-12.839844 9.984375-30.761719 0-43.574219-2.492188-3.210938-3.761719-7.265625-3.5625-11.417969.796875-16.492188-9.492188-31.054688-25.035157-35.410156-3.71875-1.046875-6.941406-3.484375-9.078124-6.867188-8.699219-13.792968-25.832032-19.492187-40.796876-13.625-3.558593 1.410156-7.476562 1.402344-11.027343.007813-14.957031-5.917969-32.105469-.167969-40.804688 13.617187-2.140625 3.382813-5.363281 5.820313-9.085937 6.867188-15.527344 4.355468-25.820313 18.917968-25.03125 35.417968.203125 4.144532-1.0625 8.199219-3.558594 11.402344-9.988281 12.820313-9.988281 30.742188 0 43.582032 2.496094 3.203124 3.761719 7.257812 3.558594 11.402343zm98.71875 131.382813-10.972656-14.625c-1.722657-2.304688-4.433594-3.660156-7.3125-3.660156-2.882813 0-5.589844 1.355468-7.3125 3.660156l-10.972657 14.625v-73.265625c4.277344.085937 8.609375-.570313 12.777344-2.214844 3.554687-1.394531 7.464844-1.40625 11.019531.007813 3.949219 1.554687 8.050782 2.292968 12.113282 2.292968.21875 0 .4375-.035156.660156-.042968zm-87.847656-175.132813c5.183593-6.664062 7.808593-15.019531 7.394531-23.519531-.371094-7.804688 4.546875-14.917969 11.699219-16.929688 8.09375-2.265624 15.054687-7.488281 19.613281-14.722656 4.074219-6.453125 11.71875-9.105468 18.636719-6.355468 7.871093 3.105468 16.550781 3.105468 24.433593 0l.007813-.011719c6.886718-2.703125 14.546875-.097657 18.625 6.367187 4.554687 7.234375 11.523437 12.457032 19.609375 14.722656 7.15625 2.011719 12.082031 9.125 11.703125 16.929688-.40625 8.5 2.21875 16.855469 7.398437 23.519531 4.757813 6.113281 4.757813 15-.007812 21.125-5.171875 6.648438-7.796875 15-7.390625 23.5.378906 7.8125-4.546875 14.925781-11.695313 16.9375-8.089843 2.265625-15.054687 7.488281-19.617187 14.710938-4.078125 6.464843-11.722656 9.089843-18.621094 6.375-3.945312-1.5625-8.089844-2.335938-12.230469-2.335938s-8.277343.773438-12.214843 2.328125c-6.878907 2.742188-14.558594.109375-18.636719-6.375-4.5625-7.222656-11.527344-12.445312-19.609375-14.703125-7.15625-2.011719-12.074219-9.125-11.703125-16.929687.417969-8.5-2.210938-16.859375-7.390625-23.519532-4.765625-6.113281-4.765625-15-.003906-21.113281zm0 0"/><path d="m219.429688 251.421875c27.726562 0 50.285156-22.5625 50.285156-50.289063 0-27.722656-22.558594-50.285156-50.285156-50.285156-27.730469 0-50.285157 22.5625-50.285157 50.285156 0 27.726563 22.554688 50.289063 50.285157 50.289063zm0-82.289063c17.640624 0 32 14.359376 32 32 0 17.644532-14.359376 32-32 32-17.644532 0-32-14.355468-32-32 0-17.640624 14.355468-32 32-32zm0 0"/></svg>