<?xml version="1.0" encoding="utf-8"?>
<!-- Generator: Adobe Illustrator 23.0.2, SVG Export Plug-In . SVG Version: 6.00 Build 0)  -->
<svg version="1.1" id="Layer_1" xmlns="http://www.w3.org/2000/svg" xmlns:xlink="http://www.w3.org/1999/xlink" x="0px" y="0px"
	 viewBox="0 0 179.7 52.2" style="enable-background:new 0 0 179.7 52.2;" xml:space="preserve">
<style type="text/css">
	.st0{fill:#2D202B;}
	.st1{font-family:'ROGFonts-Regular';}
	.st2{font-size:31px;}
</style>
<g>
	<path class="st0" d="M47.8,48.8c0-0.5,0-1,0-1.4c0.7,0,1.5,0,2.2,0c0.8,0,1.6,0,2.2,0c0,0.5,0,1-0.1,1.5H50
		C49.4,48.9,48.5,48.8,47.8,48.8"/>
	<path class="st0" d="M58.4,42.9c0-0.4,0-0.9,0-1.4h2h3.5c0.6,0,1.1,0,1.5,0c0.1,1,0.1,2,0.2,3c-0.4,0.1-1,0.1-1.5,0.2l-0.3-1.4
		c0-0.2-0.1-0.2-0.3-0.3c-0.2,0-0.7-0.1-1.6-0.1c0,0-0.1,0-0.1,0l0,3.5c0.5,0,0.9,0,1.4,0c0.3,0,0.3-0.1,0.3-0.3l0.1-0.7
		c0.5,0,1,0,1.4,0c0,0.5,0,1.1,0,1.7c0,0.6,0,1.2,0,1.7c-0.4,0-0.9,0-1.4,0l-0.1-0.7c0-0.2-0.1-0.3-0.4-0.3c-0.4,0-0.9,0-1.4,0
		l0,2.8l1.6,0c0,0.4,0,0.9,0,1.4c-0.8,0-1.9,0-2.9,0c-0.7,0-1.4,0-2.1,0c0-0.4,0-0.9,0-1.4l0.8,0c0,0,0.1,0,0.1-0.1l0-7.6L58.4,42.9
		z"/>
	<path class="st0" d="M67.3,42.9c0-0.4,0-0.9,0-1.4h2.2h2.2c0,0.4,0,0.9,0,1.4l-0.9,0c0,0,0,0,0,0.1l0,7.5l1,0.1c0,0.4,0,0.9,0,1.4
		c-0.6,0-1.5,0-2.2,0c-0.7,0-1.5,0-2.2,0c0-0.4,0-0.9,0-1.4l0.9,0c0,0,0.1,0,0.1-0.1V43L67.3,42.9z"/>
	<path class="st0" d="M76.7,50.6C76.8,50.6,76.8,50.6,76.7,50.6l0-7.6c-0.6,0-0.8,0-1,0.1c-0.2,0-0.3,0.2-0.3,0.3L75.2,45
		c-0.5,0-1.1-0.1-1.6-0.1c0.1-1.1,0.1-2.2,0.2-3.3c0.3,0,0.9,0,1.4,0h2.9h2.8c0.6,0,1.1,0,1.4,0c0.1,1.1,0.1,2.2,0.1,3.2
		c-0.5,0.1-1.1,0.1-1.6,0.2l-0.2-1.5c0-0.2-0.1-0.3-0.3-0.3c-0.2,0-0.4-0.1-1-0.1l0,7.5l1.1,0.1c0,0.4,0,0.9,0,1.4
		c-0.6,0-1.5,0-2.3,0c-0.7,0-1.6,0-2.3,0c0-0.5,0-0.9,0-1.4L76.7,50.6z"/>
	<path class="st0" d="M84.7,50.6C84.8,50.6,84.8,50.6,84.7,50.6l0-7.6l-0.9,0c0-0.4,0-0.9,0-1.4h2.9c1.1,1.8,3,4.8,4.3,7h0.1
		c0-1.8,0-3.7,0-5.6L90,43c0-0.4,0-0.9,0-1.4h1.9c0.5,0,1.1,0,1.6,0c0,0.4,0,0.9,0,1.4l-0.7,0c0,0-0.1,0-0.1,0.1l-0.1,8.8
		c-0.3,0.1-1.1,0.3-1.8,0.3c-1-1.3-2.6-3.6-4.4-6.4l-0.1,0c0,1.6,0,3.2,0,4.8l1.1,0c0,0.4,0,0.9,0,1.4h-2.1c-0.5,0-1,0-1.4,0
		c0-0.4,0-0.9,0-1.4L84.7,50.6z"/>
	<path class="st0" d="M96.3,50.6C96.3,50.6,96.3,50.6,96.3,50.6l0.1-7.6l-0.9,0c0-0.5,0-0.9,0-1.4h2h3.5c0.6,0,1.1,0,1.5,0
		c0.1,0.9,0.1,1.9,0.1,2.9c-0.4,0.1-1,0.1-1.5,0.2l-0.2-1.2c0-0.1-0.1-0.2-0.3-0.3c-0.2,0-0.6-0.1-1.6-0.1h-0.1l0,3.1
		c0.5,0,0.9,0,1.3,0c0.1,0,0.2-0.1,0.2-0.3l0.1-0.6c0.5,0,1,0,1.4,0c0,0.5,0,1.1,0,1.7c0,0.6,0,1.2,0,1.6c-0.4,0-0.9,0-1.4,0
		l-0.1-0.6c0-0.2-0.1-0.3-0.2-0.3c-0.4,0-0.8,0-1.3,0l0,2.8c0,0.3,0.1,0.4,0.8,0.4c0.6,0,1,0,1.2-0.1c0.1,0,0.2-0.1,0.3-0.3l0.4-1.3
		c0.5,0.1,1,0.2,1.5,0.3c-0.2,0.9-0.4,1.9-0.6,2.8c-0.7,0-2.8,0-4.9,0c-0.7,0-1.4,0-2,0c0-0.4,0-0.9,0-1.4L96.3,50.6z"/>
	<path class="st0" d="M106.9,50.2c0,0,0,0.1,0.1,0.1c0.3,0.2,0.6,0.3,1,0.3c0.4,0,0.8-0.1,1-0.3c0.2-0.2,0.4-0.5,0.4-0.9
		c0-0.8-0.4-1-1.5-1.4c-1.5-0.6-2.7-1.6-2.7-3.2c0-1,0.4-1.8,1-2.4c0.7-0.6,1.7-1,3.2-1c0.8,0,1.6,0.1,2,0.3c0.1,1,0.2,2,0.2,2.9
		c-0.5,0.1-1,0.1-1.5,0.2l-0.3-1.5c0,0,0-0.1-0.1-0.1c-0.2-0.2-0.5-0.3-0.7-0.3c-0.4,0-0.7,0.1-0.9,0.3c-0.2,0.2-0.4,0.5-0.4,0.9
		c0,0.8,0.3,1,1.7,1.5c1.7,0.6,2.5,1.5,2.5,3c0,1-0.4,2-1.1,2.6c-0.7,0.6-1.7,0.9-3.1,0.9c-0.6,0-1.7-0.1-2.3-0.3
		c-0.1-1-0.2-2-0.3-3c0.5-0.1,1.1-0.2,1.6-0.3L106.9,50.2z"/>
	<path class="st0" d="M115.6,50.2c0,0,0,0.1,0.1,0.1c0.3,0.2,0.6,0.3,1,0.3c0.4,0,0.8-0.1,1-0.3c0.2-0.2,0.4-0.5,0.4-0.9
		c0-0.8-0.4-1-1.5-1.4c-1.5-0.6-2.7-1.6-2.7-3.2c0-1,0.4-1.8,1-2.4c0.7-0.6,1.7-1,3.2-1c0.8,0,1.6,0.1,2,0.3c0.1,1,0.2,2,0.2,2.9
		c-0.5,0.1-1,0.1-1.5,0.2l-0.3-1.5c0,0,0-0.1-0.1-0.1c-0.2-0.2-0.5-0.3-0.7-0.3c-0.4,0-0.7,0.1-0.9,0.3c-0.2,0.2-0.4,0.5-0.4,0.9
		c0,0.8,0.3,1,1.7,1.5c1.7,0.6,2.5,1.5,2.5,3c0,1-0.4,2-1.1,2.6c-0.7,0.6-1.7,0.9-3.1,0.9c-0.6,0-1.7-0.1-2.3-0.3
		c-0.1-1-0.2-2-0.3-3c0.5-0.1,1.1-0.2,1.6-0.3L115.6,50.2z"/>
	<path class="st0" d="M126.6,48.8c0-0.5,0-1,0-1.4c0.7,0,1.5,0,2.2,0c0.8,0,1.6,0,2.2,0c0,0.5,0,1-0.1,1.5h-2.3
		C128.1,48.9,127.2,48.8,126.6,48.8"/>
</g>
<text transform="matrix(1 0 0 1 0 25.4478)" class="st1 st2">FREE FIT</text>
</svg>
