<?xml version="1.0" encoding="utf-8"?>
<!-- Generator: Adobe Illustrator 23.0.2, SVG Export Plug-In . SVG Version: 6.00 Build 0)  -->
<svg version="1.1" id="Capa_1" xmlns="http://www.w3.org/2000/svg" xmlns:xlink="http://www.w3.org/1999/xlink" x="0px" y="0px"
	 viewBox="0 0 512 512" style="enable-background:new 0 0 512 512;" xml:space="preserve">
<g>
	<path d="M100.9,54.7c-4.3,0-6.8,2.4-6.8,7.5v20c0,5.1,2.5,7.5,6.7,7.5s6.8-2.4,6.8-7.5v-2.6h-4.4c-2.3,0-3.5-2.2-3.5-4.5
		c0-2.2,1.3-4.5,3.5-4.5h12.7c2.3,0,3.5,1.7,3.5,3.7v7.9c0,13-8.1,17.8-18.5,17.8s-18.4-4.8-18.4-17.8v-20c0-13,8.2-17.8,18.1-17.8
		c10.8,0,18.9,5.4,18.9,15c0,4.5-1.9,5.6-5.9,5.6c-3.2,0-5.8-0.8-5.9-3.5S107.3,54.7,100.9,54.7L100.9,54.7z"/>
	<path d="M142.3,77c0-0.5-0.1-0.8-0.3-1.1l-15.6-25.8c-0.2-0.3-0.2-0.6-0.2-0.8c0-2.8,4.7-4.8,8-4.8c1.9,0,2.6,0.8,3.4,2.2L148.1,66
		l10.5-19.4c0.8-1.4,1.5-2.2,3.4-2.2c3.2,0,8,2,8,4.8c0,0.2,0,0.5-0.1,0.8L154.3,76c-0.1,0.2-0.3,0.6-0.3,1.1v18.9
		c0,2.4-2.9,3.6-5.9,3.6s-5.9-1.2-5.9-3.6L142.3,77L142.3,77z"/>
	<path d="M205.5,80c-1,1.7-2.5,2.2-3.9,2.2c-1.4,0-2.8-0.5-3.7-2.2l-7.2-13.1v29c0,2.4-2.9,3.6-5.9,3.6s-5.9-1.2-5.9-3.6V50.4
		c0-4.3,2.9-5.9,5.9-5.9c4.2,0,6,0.5,9.1,5.9l7.8,13.6l7.8-13.6c3.1-5.4,4.9-5.9,9.1-5.9c3,0,5.9,1.6,5.9,5.9v45.6
		c0,2.4-2.9,3.6-5.9,3.6c-2.9,0-5.9-1.2-5.9-3.6V67.7L205.5,80z"/>
	<path d="M231.1,393.7c4.1,0,7.5-3.4,7.5-7.5v-16.5c0-4.1-3.4-7.5-7.5-7.5s-7.5,3.4-7.5,7.5v16.5C223.6,390.3,227,393.7,231.1,393.7
		z"/>
	<path d="M281.4,393.7c4.1,0,7.5-3.4,7.5-7.5v-16.5c0-4.1-3.4-7.5-7.5-7.5s-7.5,3.4-7.5,7.5v16.5
		C273.9,390.3,277.3,393.7,281.4,393.7z"/>
	<path d="M512,154.5c0-13-10.6-23.6-23.6-23.6h-21.1V23.2c0-12.8-10.4-23.2-23.2-23.2H71.9C59.1,0,48.7,10.4,48.7,23.2v107.7H23.6
		c-13,0-23.6,10.6-23.6,23.6c0,11.6,8.4,21.2,19.4,23.2v166.2c0,4.1,3.4,7.5,7.5,7.5s7.5-3.4,7.5-7.5V178h443.3v75.3
		c0,4.1,3.4,7.5,7.5,7.5s7.5-3.4,7.5-7.5v-75.7C503.6,175.7,512,166.1,512,154.5z M63.7,23.2c0-4.5,3.7-8.2,8.2-8.2h372.2
		c4.5,0,8.2,3.7,8.2,8.2v107.7H63.7V23.2z M488.4,163H23.6c-4.7,0-8.6-3.8-8.6-8.6s3.8-8.6,8.6-8.6h464.9c4.7,0,8.6,3.8,8.6,8.6
		C497,159.2,493.2,163,488.4,163z"/>
	<path d="M485.1,275.9c-4.1,0-7.5,3.4-7.5,7.5v130.8H374.5c0,0,0,0,0,0v-171c0-4.1-3.4-7.5-7.5-7.5H256H145c-4.1,0-7.5,3.4-7.5,7.5
		v171H34.4v-40.4c0-4.1-3.4-7.5-7.5-7.5s-7.5,3.4-7.5,7.5v126.1c0,4.1,3.4,7.5,7.5,7.5h458.3c4.1,0,7.5-3.4,7.5-7.5V283.4
		C492.6,279.2,489.3,275.9,485.1,275.9z M477.6,452.3h-14.9v-23.1h14.9V452.3z M374.5,467.3h47.5v25.1h-47.5V467.3z M404.2,452.3
		v-23.1h43.5v23.1L404.2,452.3L404.2,452.3z M374.5,429.2h14.6v23.1h-14.7L374.5,429.2C374.5,429.2,374.5,429.2,374.5,429.2z
		 M359.5,492.4h-96V250.8h96L359.5,492.4z M152.5,250.8h96v241.7h-96V250.8z M64.7,452.3v-23.1h43.5v23.1L64.7,452.3L64.7,452.3z
		 M137.5,467.3v25.1H97.6v-25.1H137.5z M137.5,452.3h-14.2v-23.1h14.2V452.3z M49.7,429.2v23.1H34.4v-23.1H49.7z M34.4,467.3h48.2
		v25.1H34.4V467.3z M437.1,492.4v-25.1h40.6v25.1H437.1z"/>
	<path d="M264.8,93.8h5.7v8c0,9.5,7.7,17.2,17.1,17.2h9c9.5,0,17.1-7.7,17.1-17.2v-8h52.7v8c0,9.5,7.7,17.2,17.2,17.2h9
		c9.5,0,17.1-7.7,17.1-17.2v-8h5.7c11.2,0,20.3-9.1,20.3-20.3s-9.1-20.3-20.3-20.3h-5.7v-8c0-9.5-7.7-17.1-17.1-17.1h-9
		c-9.5,0-17.2,7.7-17.2,17.1v8h-52.7v-8c0-9.5-7.7-17.1-17.1-17.1h-9c-9.5,0-17.1,7.7-17.1,17.1v8h-5.7c-11.2,0-20.3,9.1-20.3,20.3
		C244.5,84.7,253.6,93.8,264.8,93.8z M410.2,68.1h5.3c2.9,0,5.3,2.4,5.3,5.3s-2.4,5.3-5.3,5.3h-5.3V68.1z M381.5,45.2
		c0-1.2,1-2.2,2.2-2.2h9c1.2,0,2.1,1,2.1,2.2v56.6c0,1.2-1,2.2-2.1,2.2h-9c-1.2,0-2.2-1-2.2-2.2V86.3V60.6V45.2z M366.5,68.1v10.7
		h-52.7V68.1H366.5z M285.6,45.2c0-1.2,1-2.2,2.1-2.2h9c1.2,0,2.1,1,2.1,2.2v15.5v25.7v15.5c0,1.2-1,2.2-2.1,2.2h-9
		c-1.2,0-2.1-1-2.1-2.2V45.2z M264.8,68.1h5.3v10.7h-5.3c-2.9,0-5.3-2.4-5.3-5.3S261.9,68.1,264.8,68.1z"/>
</g>
</svg>
