<svg width="34" height="26" viewBox="0 0 34 26" fill="none" xmlns="http://www.w3.org/2000/svg">
<g clip-path="url(#clip0)">
<path d="M33.7941 13.5744L23.1691 25.7631C22.8902 26.0754 22.4453 26.0754 22.1664 25.7631C21.8875 25.4431 21.8875 24.9327 22.1664 24.6128L31.5828 13.8105L0.710549 13.8105C0.318752 13.8105 2.19474e-06 13.4449 2.27333e-06 12.9954C2.35191e-06 12.546 0.318752 12.1803 0.710549 12.1803L31.5828 12.1803L22.1664 1.38569C21.8875 1.06573 21.8875 0.555328 22.1664 0.235376C22.3059 0.0753995 22.4852 -0.000778082 22.6645 -0.00077805C22.8438 -0.000778019 23.0297 0.0753996 23.1625 0.235377L33.7875 12.4241C34.0664 12.744 34.0664 13.2544 33.7941 13.5744Z" fill="#562C2C" fill-opacity="0.5"/>
</g>
<defs>
<clipPath id="clip0">
<rect width="34" height="26" fill="white" transform="matrix(1 1.74846e-07 1.74846e-07 -1 0 26)"/>
</clipPath>
</defs>
</svg>
