<svg width="41" height="31" viewBox="0 0 41 31" fill="none" xmlns="http://www.w3.org/2000/svg">
<g clip-path="url(#clip0)">
<path d="M0.248241 14.8151L13.0607 0.282474C13.3971 -0.0899261 13.9336 -0.0899261 14.2699 0.282474C14.6063 0.663956 14.6063 1.27251 14.2699 1.65399L2.91484 14.5336H40.1432C40.6156 14.5336 41 14.9696 41 15.5054C41 16.0413 40.6156 16.4773 40.1432 16.4773H2.91484L14.2699 29.3478C14.6063 29.7293 14.6063 30.3379 14.2699 30.7193C14.1018 30.9101 13.8855 31.0009 13.6693 31.0009C13.4531 31.0009 13.2289 30.9101 13.0688 30.7193L0.256252 16.1867C-0.0800781 15.8052 -0.0800781 15.1966 0.248241 14.8151Z" fill="#562C2C" fill-opacity="0.5"/>
</g>
<defs>
<clipPath id="clip0">
<rect width="41" height="31" fill="white" transform="matrix(-1 0 0 1 41 0)"/>
</clipPath>
</defs>
</svg>
